<svg width="573" height="139" viewBox="0 0 573 139" fill="none" xmlns="http://www.w3.org/2000/svg">
<g clip-path="url(#clip0_363_510)">
<path d="M186 62.5C178.8 62.5 173.2 60.5 169 56.4C164.8 52.4 162.7 46.5 162.7 38.9V25.1C162.7 17.4 164.8 11.6 169 7.6C173.2 3.6 178.9 1.5 186 1.5C193.2 1.5 198.5 3.5 202.3 7.4C206.1 11.3 208 16.6 208 23.4V23.9H199V23.1C199 19.1 197.9 15.9 195.8 13.4C193.7 10.9 190.4 9.6 186 9.6C181.6 9.6 178 10.9 175.5 13.7C173 16.4 171.7 20.2 171.7 25V39C171.7 43.7 172.9 47.5 175.5 50.2C178 52.9 181.5 54.3 186 54.3C190.5 54.3 193.7 53 195.8 50.5C197.9 48 199 44.7 199 40.8V39.4H208V40.6C208 47.4 206.1 52.7 202.3 56.6C198.4 60.5 193 62.5 186 62.5Z" fill="white"/>
<path d="M241.8 62.5C234.6 62.5 228.9 60.5 224.6 56.4C220.4 52.4 218.2 46.5 218.2 38.9V25.1C218.2 17.4 220.3 11.6 224.6 7.6C228.8 3.6 234.6 1.5 241.8 1.5C249 1.5 254.7 3.5 259 7.6C263.3 11.6 265.4 17.5 265.4 25.1V38.8C265.4 46.5 263.3 52.3 259 56.3C254.8 60.5 249 62.5 241.8 62.5ZM241.8 54.4C246.4 54.4 250 53.1 252.5 50.3C255 47.6 256.3 43.9 256.3 39.2V24.8C256.3 20.1 255.1 16.4 252.5 13.7C249.9 11 246.4 9.6 241.8 9.6C237.2 9.6 233.7 10.9 231.2 13.7C228.6 16.4 227.4 20.1 227.4 24.8V39.2C227.4 43.9 228.7 47.6 231.2 50.3C233.8 53 237.3 54.4 241.8 54.4Z" fill="white"/>
<path d="M297.9 62.5C293.5 62.5 289.6 61.7 286.2 60.2C282.8 58.6 280.1 56.3 278.2 53.3C276.3 50.3 275.3 46.6 275.3 42.2V40H284.3V42.1C284.3 46.2 285.5 49.3 288 51.4C290.5 53.5 293.8 54.5 297.9 54.5C302 54.5 305.2 53.6 307.4 51.9C309.5 50.1 310.6 47.9 310.6 45.1C310.6 43.3 310.1 41.7 309.1 40.6C308.1 39.4 306.7 38.5 304.8 37.8C303 37.1 300.8 36.5 298.2 35.8L295 35C291.3 34.1 288 33 285.2 31.7C282.4 30.4 280.3 28.6 278.8 26.5C277.3 24.3 276.5 21.5 276.5 18.1C276.5 14.7 277.4 11.7 279.1 9.2C280.8 6.7 283.2 4.8 286.2 3.5C289.2 2.2 292.8 1.5 296.8 1.5C300.9 1.5 304.5 2.2 307.7 3.6C310.9 5 313.4 7.1 315.3 9.8C317.1 12.5 318.1 16 318.1 20.1V23.1H309.1V20.1C309.1 17.6 308.6 15.5 307.6 14C306.6 12.4 305.1 11.3 303.3 10.6C301.5 9.9 299.3 9.5 296.9 9.5C293.3 9.5 290.6 10.2 288.6 11.7C286.6 13.2 285.6 15.2 285.6 17.9C285.6 19.7 286 21.2 286.9 22.3C287.8 23.5 289 24.4 290.7 25.1C292.4 25.8 294.5 26.5 297 27L300.1 27.8C303.9 28.6 307.2 29.7 310.2 31C313.1 32.3 315.4 34.1 317.1 36.3C318.8 38.5 319.6 41.4 319.6 44.9C319.6 48.4 318.7 51.5 317 54.1C315.2 56.7 312.7 58.8 309.5 60.3C306.1 61.8 302.3 62.5 297.9 62.5Z" fill="white"/>
<path d="M330.7 61.2999V2.69995H347.7L360.5 55.2999H361.8L374.6 2.69995H391.6V61.2999H382.8V8.99995H381.5L368.8 61.2999H353.6L340.9 8.99995H339.6V61.2999H330.7Z" fill="white"/>
<path d="M405.7 61.2999V2.69995H442.6V10.9H414.7V27.7H440.3V35.9H414.7V53.0999H443V61.2999H405.7Z" fill="white"/>
<path d="M468.3 61.2999V10.9H450.3V2.69995H495.4V10.9H477.4V61.2999H468.3Z" fill="white"/>
<path d="M505.3 61.2999V2.69995H514.3V61.2999H505.3Z" fill="white"/>
<path d="M550.1 62.5C542.9 62.5 537.3 60.5 533.1 56.4C528.9 52.4 526.8 46.5 526.8 38.9V25.1C526.8 17.4 528.9 11.6 533.1 7.6C537.3 3.6 543 1.5 550.1 1.5C557.2 1.5 562.6 3.5 566.4 7.4C570.2 11.3 572.1 16.6 572.1 23.4V23.9H563.1V23.1C563.1 19.1 562 15.9 559.9 13.4C557.8 10.9 554.5 9.6 550.1 9.6C545.7 9.6 542.1 10.9 539.6 13.7C537.1 16.5 535.8 20.2 535.8 25V39C535.8 43.7 537 47.5 539.6 50.2C542.1 52.9 545.6 54.3 550.1 54.3C554.6 54.3 557.8 53 559.9 50.5C562 48 563.1 44.7 563.1 40.8V39.4H572.1V40.6C572.1 47.4 570.2 52.7 566.4 56.6C562.6 60.5 557.2 62.5 550.1 62.5Z" fill="white"/>
<path d="M162 138V130H169.9V87.3999H162V79.3999H185.5C193.3 79.3999 199.3 81.3999 203.5 85.2999C207.7 89.2999 209.7 95.1999 209.7 103.2V114.2C209.7 122.2 207.6 128.1 203.5 132.1C199.3 136 193.3 138 185.5 138H162ZM179 129.8H185.5C190.6 129.8 194.3 128.5 196.8 126C199.3 123.4 200.5 119.6 200.5 114.5V102.9C200.5 97.7999 199.3 93.8999 196.8 91.3999C194.3 88.8999 190.6 87.5999 185.5 87.5999H179V129.8Z" fill="white"/>
<path d="M221.6 138V79.3999H258.5V87.5999H230.6V104.4H256.1V112.6H230.6V129.8H259V138H221.6Z" fill="white"/>
<path d="M270.2 138V79.3999H287.6L303.5 132H304.8V79.3999H313.8V138H296.4L280.5 85.2999H279.2V138H270.2Z" fill="white"/>
<path d="M341.9 138V87.5999H323.9V79.3999H369V87.5999H351V138H341.9Z" fill="white"/>
<path d="M368.7 138L385.5 79.3999H401.4L418 138H408.7L404.9 124.2H381.9L378.1 138H368.7ZM384.2 115.8H402.6L394.1 84.9999H392.8L384.2 115.8Z" fill="white"/>
<path d="M427.7 138V79.3999H436.7V129.8H465V138H427.7Z" fill="white"/>
<path d="M65.5 16.4999C62.9 17.2999 61.6 16.6999 60.1 16.2999C58.6 15.8999 57.3 15.3999 56.1 14.7999C51.5 12.0999 46.6 10.3999 41.3 10.1999C27.1 9.1999 13.1 19.8999 11.1 34.0999C10.8 36.1999 10.3 40.3999 10.1 42.4999C8.70001 61.1999 12.3 79.6999 18.2 97.4999C20 103 22.1 108.4 24.3 113.8C26.2 118.5 28.7 123.6 32.4 126.7C35.7 129.7 39 127.7 40.3 123.8C43.6 113.4 45.5 102.6 47.8 91.9999C49.8 81.6999 53.6 63.6999 66.5 62.3999C75.9 61.4999 84.6 68.0999 83 77.9999L82.4 78.1999C78.2 72.2999 73.7 70.0999 66.9 70.9999C61.4 72.8999 58.9 83.8999 57.8 89.2999C55.4 102.4 53.4 115.6 49.3 128.3C45.6 138 34.1 141.6 26.2 134.6C20.7 129.9 17.9 123.9 15.2 117.8C12.9 112.2 10.7 106.6 8.70001 100.8C1.30001 78.9999 -2.29999 55.1999 1.60001 32.3999C4.00001 17.0999 16.7 4.5999 31.8 1.6999C38.4 0.299902 45.3 0.799902 51.7 3.0999C56.3 4.8999 61.2 6.7999 63.9 11.0999C64.8 12.4999 65.7 13.7999 65.5 16.4999Z" fill="white"/>
<path d="M37.2 21.8001C40 24.8001 44.2 24.3001 47.7 23.2001C54 21.2001 57.7 16.4001 62.8 12.1001L69.6 19.3001L69.1 19.8001L62.1 12.7001C74.6 1.40008 94.1 -2.69992 109.2 6.10008C124.2 14.4001 128.7 32.8001 127.9 48.7001C127.7 53.8001 127 58.9001 126.1 63.8001C125.1 68.7001 124.3 73.7001 121.5 78.2001L120.9 78.1001C120.2 72.9001 121.2 68.1001 121.5 63.3001C121.9 58.4001 122 53.6001 121.7 48.9001C121.1 35.9001 117.1 20.9001 104.8 14.7001C93.6 9.10008 80 12.6001 70.1 19.5001L68.9 20.3001L61.9 13.2001L62.4 12.7001L69.2 19.9001C61 27.4001 43.1 36.8001 37.2 21.8001Z" fill="white"/>
<path d="M78.4 108C95.4 110.7 112.1 108.5 129.3 108.4C130.1 108.4 130.4 110 129.6 110.4C125.6 112.9 121.3 114.5 117 115.6C104.1 118.4 89.8 117.5 78.2 108.8C77.9 108.6 78 107.9 78.4 108Z" fill="white"/>
<path d="M83.2 127.8C90.8 128.1 97.8 129.5 105.3 129.2C112.7 129.3 119.6 126.2 127 125.4C127.6 125.4 127.9 126.4 127.3 126.7C117.5 135 105.5 138.5 93.6 134C89.8 132.7 86.3 130.7 83.1 128.2C82.9 128.1 83 127.7 83.2 127.8Z" fill="white"/>
<path d="M75 89.7001C94.1 93.4001 113.3 92.2001 132.1 87.1001C132.6 86.9001 133 87.7001 132.5 88.0001C118.3 98.5001 105.3 100.1 88.4 97.5001C83.3 96.6001 81.4 95.6001 76.8 93.5001C75.9 93.1001 72.1 90.4001 72.4 89.9001C72.5 89.1001 75 89.7001 75 89.7001Z" fill="white"/>
</g>
<defs>
<clipPath id="clip0_363_510">
<rect width="573" height="139" fill="white"/>
</clipPath>
</defs>
</svg>
